<svg id="visual" viewBox="0 0 960 540" width="960" height="540" xmlns="http://www.w3.org/2000/svg" xmlns:xlink="http://www.w3.org/1999/xlink" version="1.1"><rect x="0" y="0" width="960" height="540" fill="#FFFFFF"></rect><path d="M178 0L204 68L173 135L197 203L216 270L164 338L168 405L218 473L168 540L0 540L0 473L0 405L0 338L0 270L0 203L0 135L0 68L0 0Z" fill="#871400"></path><path d="M158 0L123 68L151 135L159 203L144 270L150 338L133 405L170 473L129 540L0 540L0 473L0 405L0 338L0 270L0 203L0 135L0 68L0 0Z" fill="#6b0033"></path><path d="M90 0L83 68L114 135L115 203L107 270L90 338L103 405L119 473L107 540L0 540L0 473L0 405L0 338L0 270L0 203L0 135L0 68L0 0Z" fill="#37183e"></path><path d="M53 0L51 68L43 135L72 203L72 270L47 338L71 405L72 473L52 540L0 540L0 473L0 405L0 338L0 270L0 203L0 135L0 68L0 0Z" fill="#0f1626"></path></svg>